<svg width="448" height="48" viewBox="0 0 448 48" fill="none" xmlns="http://www.w3.org/2000/svg">
<path d="M72 37.8239H77.187V25.2603H88.146V21.0333H77.187V12.8532H89.316V8.46967H72V37.8239Z" fill="black"/>
<path d="M93.6916 37.8239H98.4106V18.1761H93.6916V37.8239ZM93.5356 14.1057H98.5666V9.29158H93.5356V14.1057Z" fill="black"/>
<path d="M103.861 37.8239H108.58V26.4736C108.58 24.2427 109.672 21.816 113.026 21.816C115.834 21.816 116.926 23.7339 116.926 26.4736V37.8239H121.684V25.8865C121.684 21.4247 119.734 17.7065 114.43 17.7065C111.271 17.7065 109.399 19.3894 108.463 20.7984L108.19 18.1761H103.861V37.8239Z" fill="black"/>
<path d="M135.213 38.2935C138.645 38.2935 140.283 36.6497 141.024 35.2016V32.5793H137.748C137.748 32.775 137.514 34.3014 135.408 34.3014C133.38 34.3014 132.639 33.0098 132.639 30.7397V22.1292H140.361V18.1761H132.639V13.2446H128.31L128.037 18.1761H124.839V22.1292H127.92V31.0528C127.92 35.6712 130.455 38.2935 135.213 38.2935Z" fill="black"/>
<path d="M153.473 38.2935C159.947 38.2935 161.897 34.8102 161.897 34.8102V32.227H158.465C158.465 32.227 157.568 34.3405 153.512 34.3405C150.002 34.3405 148.169 32.227 147.896 28.9002H162.092C162.092 28.9002 162.287 27.8826 162.287 26.591C162.287 21.5421 159.518 17.7065 153.083 17.7065C146.687 17.7065 143.138 22.3249 143.138 28C143.138 33.9491 146.609 38.2935 153.473 38.2935ZM148.052 25.6908C148.559 23.3033 149.963 21.6204 153.083 21.6204C156.203 21.6204 157.685 23.4207 157.685 25.6908H148.052Z" fill="black"/>
<path d="M175.518 38.2935C181.836 38.2935 183.279 34.2622 183.279 34.2622V31.6791H179.964C179.964 31.6791 179.379 34.2231 175.518 34.2231C171.891 34.2231 170.214 31.4442 170.214 28C170.214 24.5949 171.891 21.7378 175.518 21.7378C179.223 21.7378 179.925 24.2818 179.925 24.2818H183.24V21.6986C183.24 21.6986 181.875 17.6673 175.518 17.6673C169.2 17.6673 165.456 22.3249 165.456 28C165.456 33.636 168.771 38.2935 175.518 38.2935Z" fill="black"/>
<path d="M187.573 37.8239H192.292V26.4736C192.292 24.2427 193.384 21.816 196.738 21.816C199.546 21.816 200.638 23.7339 200.638 26.4736V37.8239H205.396V25.8865C205.396 21.4247 203.446 17.7065 198.142 17.7065C195.139 17.7065 193.267 19.272 192.292 20.6027V8.46967H187.573V37.8239Z" fill="black"/>
<path d="M220.992 37.8239H230.586C239.634 37.8239 245.25 31.1703 245.25 23.0294C245.25 15.0059 239.634 8.46967 230.586 8.46967H220.992V37.8239ZM226.179 33.4403V12.8532H230.469C236.358 12.8532 239.985 17.4325 239.985 23.0294C239.985 28.7828 236.358 33.4403 230.469 33.4403H226.179Z" fill="black"/>
<path d="M258.895 38.2935C265.369 38.2935 267.319 34.8102 267.319 34.8102V32.227H263.887C263.887 32.227 262.99 34.3405 258.934 34.3405C255.424 34.3405 253.591 32.227 253.318 28.9002H267.514C267.514 28.9002 267.709 27.8826 267.709 26.591C267.709 21.5421 264.94 17.7065 258.505 17.7065C252.109 17.7065 248.56 22.3249 248.56 28C248.56 33.9491 252.031 38.2935 258.895 38.2935ZM253.474 25.6908C253.981 23.3033 255.385 21.6204 258.505 21.6204C261.625 21.6204 263.107 23.4207 263.107 25.6908H253.474Z" fill="black"/>
<path d="M279.107 38.2935C284.177 38.2935 286.868 35.5538 286.868 31.9139C286.868 28.1957 284.06 26.9041 280.862 26.317L278.6 25.8865C276.845 25.5342 275.675 24.8689 275.675 23.6164C275.675 22.364 276.494 21.4247 278.678 21.4247C281.642 21.4247 282.578 23.499 282.617 23.6947H285.932V21.1115C285.113 19.3894 283.046 17.7065 278.717 17.7065C273.959 17.7065 271.307 20.4853 271.307 23.8513C271.307 27.4129 273.608 29.0176 276.572 29.5264L278.834 29.9569C280.94 30.3875 282.539 30.7789 282.539 32.3836C282.539 33.6751 281.681 34.5362 279.107 34.5362C275.675 34.5362 274.349 32.3053 274.31 32.0704H270.956V34.6536C271.19 35.2016 273.296 38.2935 279.107 38.2935Z" fill="black"/>
<path d="M291.091 37.8239H295.81V18.1761H291.091V37.8239ZM290.935 14.1057H295.966V9.29158H290.935V14.1057Z" fill="black"/>
<path d="M309.879 48C316.392 48 320.487 43.6556 320.487 36.7671V18.1761H316.119L315.768 21.0724C314.364 18.998 312.102 17.6673 309.138 17.6673C303.561 17.6673 300.129 22.2857 300.129 27.9609C300.129 33.5186 303.522 38.137 309.099 38.137C312.024 38.137 314.325 36.8845 315.729 34.8493V36.8454C315.729 41.0724 313.779 43.773 309.801 43.773C305.628 43.773 304.575 40.7593 304.575 40.7593H301.104V43.3425C301.104 43.3425 302.976 48 309.879 48ZM310.308 34.0665C306.681 34.0665 304.848 31.3268 304.848 27.9217C304.848 24.5558 306.681 21.816 310.308 21.816C313.623 21.816 315.729 24.5558 315.729 27.9217C315.729 31.3268 313.623 34.0665 310.308 34.0665Z" fill="black"/>
<path d="M325.902 37.8239H330.621V26.4736C330.621 24.2427 331.713 21.816 335.067 21.816C337.875 21.816 338.967 23.7339 338.967 26.4736V37.8239H343.725V25.8865C343.725 21.4247 341.775 17.7065 336.471 17.7065C333.312 17.7065 331.44 19.3894 330.504 20.7984L330.231 18.1761H325.902V37.8239Z" fill="black"/>
<path d="M372.034 38.2935C379.873 38.2935 382.837 33.7926 383.11 32.775V29.9569H379.132C379.015 30.4266 377.338 33.91 372.112 33.91C366.34 33.91 362.869 29.2524 362.869 23.0685C362.869 16.7671 366.379 12.3444 372.112 12.3444C377.455 12.3444 378.859 15.6712 378.937 16.1409H382.915V13.3229C382.72 12.501 380.185 8 372.034 8C363.337 8 357.643 14.3405 357.643 23.0685C357.643 31.6791 362.752 38.2935 372.034 38.2935Z" fill="black"/>
<path d="M396.152 38.2935C402.47 38.2935 406.253 33.636 406.253 27.9609C406.253 22.2857 402.47 17.7065 396.152 17.7065C389.756 17.7065 386.012 22.2857 386.012 27.9609C386.012 33.636 389.756 38.2935 396.152 38.2935ZM396.152 34.2231C392.486 34.2231 390.77 31.4051 390.77 27.9609C390.77 24.5949 392.486 21.7769 396.152 21.7769C399.818 21.7769 401.495 24.5949 401.495 27.9609C401.495 31.4051 399.818 34.2231 396.152 34.2231Z" fill="black"/>
<path d="M410.529 37.8239H415.248V26.4736C415.248 24.2427 416.34 21.816 419.694 21.816C422.502 21.816 423.594 23.7339 423.594 26.4736V37.8239H428.352V25.8865C428.352 21.4247 426.402 17.7065 421.098 17.7065C417.939 17.7065 416.067 19.3894 415.131 20.7984L414.858 18.1761H410.529V37.8239Z" fill="black"/>
<path d="M435.095 37.8239H439.853V22.1292H446.132V18.1761H439.853V15.319C439.853 13.2446 440.633 12.227 442.232 12.227C443.87 12.227 444.221 13.3229 444.221 13.4795H447.575V10.8571C446.951 9.33072 445.235 8.07828 442.193 8.07828C437.708 8.07828 435.095 10.818 435.095 15.3973V18.1761H431.663V22.1292H435.095V37.8239Z" fill="black"/>
<rect width="48" height="48" rx="16" fill="#FEE600"/>
<path fill-rule="evenodd" clip-rule="evenodd" d="M24.0001 27.4281L15.5813 36.0335L12.241 32.6229L20.6607 24.0146L18.9043 22.2178V18.6702L17.6845 17.422V20.5158L16.6228 21.6016L12.3544 17.2367L11.2986 18.3156C11.3062 17.5017 11.4651 15.146 13.4195 13.182C15.5286 11.1077 17.8063 12.0423 18.5853 12.8394L22.8516 17.2022L21.7633 18.3135L24.0001 20.6011L26.2365 18.3135L25.1487 17.2022L29.4141 12.8394C30.193 12.0423 32.4707 11.1077 34.5799 13.182C36.5347 15.146 36.6936 17.5017 36.7016 18.3156L35.6458 17.2367L31.377 21.6016L30.3157 20.5158V17.422L29.095 18.6702V22.2178L27.3387 24.0146L35.7588 32.6229L32.4189 36.0335L24.0001 27.4281Z" fill="black"/>
</svg>
