<svg width="32" height="32" viewBox="0 0 32 32" fill="none" xmlns="http://www.w3.org/2000/svg">
<path fill-rule="evenodd" clip-rule="evenodd" d="M2.6665 3.99999C2.6665 3.26361 3.26346 2.66666 3.99984 2.66666H9.33317C10.0696 2.66666 10.6665 3.26361 10.6665 3.99999V9.33332C10.6665 10.0697 10.0696 10.6667 9.33317 10.6667H3.99984C3.26346 10.6667 2.6665 10.0697 2.6665 9.33332V3.99999ZM5.33317 5.33332V7.99999H7.99984V5.33332H5.33317Z" fill="#2B2D33"/>
<path fill-rule="evenodd" clip-rule="evenodd" d="M21.3332 3.99999C21.3332 3.26361 21.9301 2.66666 22.6665 2.66666H27.9998C28.7362 2.66666 29.3332 3.26361 29.3332 3.99999V9.33332C29.3332 10.0697 28.7362 10.6667 27.9998 10.6667H22.6665C21.9301 10.6667 21.3332 10.0697 21.3332 9.33332V3.99999ZM23.9998 5.33332V7.99999H26.6665V5.33332H23.9998Z" fill="#2B2D33"/>
<path fill-rule="evenodd" clip-rule="evenodd" d="M3.99984 21.3333C3.26346 21.3333 2.6665 21.9303 2.6665 22.6667V28C2.6665 28.7364 3.26346 29.3333 3.99984 29.3333H9.33317C10.0696 29.3333 10.6665 28.7364 10.6665 28V22.6667C10.6665 21.9303 10.0696 21.3333 9.33317 21.3333H3.99984ZM5.33317 26.6667V24H7.99984V26.6667H5.33317Z" fill="#2B2D33"/>
<path d="M13.3332 2.66666H15.9998V5.33332H13.3332V2.66666Z" fill="#2B2D33"/>
<path d="M15.9998 7.99999V5.33332H18.6665V10.6667H15.9998V13.3333H13.3332V7.99999H15.9998Z" fill="#2B2D33"/>
<path fill-rule="evenodd" clip-rule="evenodd" d="M13.3332 16V13.3333H7.99984V16H5.33317V13.3333H2.6665V16H5.33317V18.6667H10.6665V21.3333H15.9998V24H13.3332V29.3333H15.9998V26.6667H21.3332V29.3333H23.9998V26.6667H29.3332V24H23.9998V21.3333H26.6665V18.6667H29.3332V16H26.6665V13.3333H21.3332V10.6667H18.6665V13.3333H15.9998V16H13.3332ZM18.6665 16H15.9998V21.3333H18.6665V24H21.3332V26.6667H23.9998V24H21.3332V21.3333H23.9998V18.6667H26.6665V16H23.9998V18.6667H21.3332V21.3333H18.6665V16ZM18.6665 16H21.3332V13.3333H18.6665V16ZM13.3332 16V18.6667H10.6665V16H13.3332Z" fill="#2B2D33"/>
</svg>
