<svg width="129" height="94" viewBox="0 0 129 94" fill="none" xmlns="http://www.w3.org/2000/svg">
<path d="M1.60161 27.6719V0H18.1391V4.13233H6.55541V11.8436H17.0217V15.8283H6.55541V27.6719H1.60161Z" fill="black"/>
<path d="M32.0298 9.15016V27.6719H36.5366V16.9721C36.5366 16.4555 36.6111 15.939 36.7601 15.4225C36.9091 14.8813 37.145 14.4017 37.4678 13.9835C37.7906 13.5654 38.2252 13.2333 38.7714 12.9873C39.3177 12.7168 39.9882 12.5815 40.7828 12.5815C42.1236 12.5815 43.0796 12.9996 43.6507 13.8359C44.2219 14.6476 44.5074 15.693 44.5074 16.9721V27.6719H49.0515V16.4186C49.0515 15.361 48.9274 14.3648 48.679 13.4301C48.4307 12.4954 48.0334 11.6837 47.4872 10.995C46.9409 10.2816 46.2208 9.7282 45.3268 9.33464C44.4578 8.91649 43.39 8.70742 42.1236 8.70742C40.6338 8.70742 39.417 9.02718 38.4735 9.66671C37.5547 10.3062 36.8719 10.9581 36.4249 11.6222L36.1642 9.15016H32.0298Z" fill="black"/>
<path d="M61.9729 28.1146C59.7133 28.1146 57.9875 27.5243 56.7956 26.3436C55.6037 25.1384 55.0078 23.4534 55.0078 21.2889V12.8766H52.0653V9.15016H55.1195L55.3802 4.50129H59.5146V9.15016H66.8895V12.8766H59.5146V20.9937C59.5146 22.0514 59.7133 22.8754 60.1106 23.4657C60.5079 24.0561 61.1907 24.3512 62.1591 24.3512C62.6558 24.3512 63.0531 24.2775 63.351 24.1299C63.649 23.9823 63.8725 23.8101 64.0215 23.6133C64.1705 23.4165 64.2698 23.2321 64.3194 23.0599C64.3691 22.8877 64.3939 22.777 64.3939 22.7278H67.5227V25.1998C67.175 25.8886 66.5667 26.5527 65.6976 27.1922C64.8533 27.8072 63.6118 28.1146 61.9729 28.1146Z" fill="black"/>
<path fill-rule="evenodd" clip-rule="evenodd" d="M75.091 27.3767C76.3326 27.8686 77.7728 28.1146 79.4116 28.1146C80.9511 28.1146 82.2299 27.9424 83.248 27.5981C84.2909 27.2537 85.1228 26.8848 85.7435 26.4912C86.3643 26.073 86.7989 25.6918 87.0472 25.3474L87.4569 24.8309V22.3958H84.1792L83.9557 22.7278C83.8316 22.9246 83.5956 23.146 83.248 23.392C82.9252 23.6379 82.4534 23.8716 81.8326 24.093C81.2119 24.2898 80.4173 24.3881 79.4489 24.3881C77.7852 24.3881 76.5064 23.9208 75.6124 22.9861C74.7185 22.0514 74.2095 20.8092 74.0853 19.2596H87.6431L87.7176 18.6324C87.7921 18.2142 87.8294 17.6977 87.8294 17.0828C87.8294 15.9021 87.6555 14.7952 87.3079 13.7621C86.9851 12.7291 86.4636 11.8436 85.7435 11.1056C85.0234 10.3677 84.1047 9.78969 82.9873 9.37154C81.8947 8.92879 80.5787 8.70742 79.0391 8.70742C77.5245 8.70742 76.1712 8.96569 74.9793 9.48223C73.7874 9.99877 72.7941 10.6998 71.9995 11.5853C71.2049 12.4462 70.5966 13.467 70.1744 14.6476C69.7523 15.8283 69.5412 17.0828 69.5412 18.411C69.5412 19.8131 69.7399 21.1167 70.1372 22.322C70.5593 23.5026 71.1801 24.5234 71.9995 25.3843C72.8438 26.2206 73.8743 26.8848 75.091 27.3767ZM83.4342 16.2342H74.2343C74.4826 15.1027 74.9668 14.1803 75.6869 13.467C76.4319 12.7537 77.5493 12.397 79.0391 12.397C80.529 12.397 81.634 12.7783 82.3541 13.5408C83.0742 14.2787 83.4342 15.1765 83.4342 16.2342Z" fill="black"/>
<path d="M96.2197 27.3398C95.0278 26.8233 94.0346 26.1345 93.24 25.2736C92.4454 24.3881 91.8495 23.3551 91.4522 22.1744C91.0549 20.9937 90.8562 19.7393 90.8562 18.411C90.8562 17.0828 91.0673 15.8283 91.4894 14.6476C91.9364 13.4424 92.5696 12.4093 93.389 11.5484C94.2084 10.6629 95.2141 9.96187 96.406 9.44533C97.6227 8.92879 98.976 8.67052 100.466 8.67052C101.981 8.67052 103.21 8.8673 104.153 9.26085C105.122 9.65441 105.879 10.0972 106.425 10.5891C106.972 11.0564 107.344 11.4869 107.543 11.8805L107.841 12.4708V14.9059H104.675L104.489 14.537C104.389 14.291 104.191 14.0204 103.893 13.7252C103.595 13.4055 103.16 13.1226 102.589 12.8766C102.043 12.6307 101.335 12.5077 100.466 12.5077C99.5968 12.5077 98.8394 12.6676 98.1938 12.9873C97.573 13.3071 97.0516 13.7375 96.6294 14.2787C96.2073 14.7952 95.8969 15.4225 95.6983 16.1604C95.4996 16.8737 95.4003 17.6239 95.4003 18.411C95.4003 20.0344 95.81 21.4242 96.6294 22.5802C97.4737 23.7117 98.7525 24.2775 100.466 24.2775C101.385 24.2775 102.117 24.1545 102.663 23.9085C103.235 23.6625 103.669 23.392 103.967 23.0968C104.265 22.777 104.464 22.4942 104.563 22.2482L104.712 21.8792H107.878V24.3143L107.543 24.9047C107.344 25.2982 106.972 25.741 106.425 26.2329C105.879 26.7003 105.122 27.1307 104.153 27.5243C103.185 27.9178 101.956 28.1146 100.466 28.1146C98.8518 28.1146 97.4365 27.8563 96.2197 27.3398Z" fill="black"/>
<path d="M116.485 0H111.978V27.6719H116.485V16.9721C116.485 16.4555 116.56 15.939 116.709 15.4225C116.858 14.8813 117.093 14.4017 117.416 13.9835C117.739 13.5654 118.174 13.2333 118.72 12.9873C119.266 12.7168 119.937 12.5815 120.731 12.5815C122.072 12.5815 123.028 12.9996 123.599 13.8359C124.17 14.6476 124.456 15.693 124.456 16.9721V27.6719H129V16.4186C129 15.361 128.876 14.3648 128.628 13.4301C128.379 12.4954 127.982 11.6837 127.436 10.995C126.889 10.2816 126.169 9.7282 125.275 9.33464C124.406 8.91649 123.339 8.70742 122.072 8.70742C120.657 8.70742 119.49 9.01488 118.571 9.62981C117.652 10.2201 116.957 10.8228 116.485 11.4377V0Z" fill="black"/>
<path fill-rule="evenodd" clip-rule="evenodd" d="M1.60161 60.6146V32.9427H10.7643C12.9246 32.9427 14.8614 33.3117 16.5748 34.0496C18.3129 34.7629 19.7904 35.7345 21.0071 36.9643C22.2238 38.1942 23.155 39.6577 23.8006 41.3549C24.4462 43.0276 24.769 44.7986 24.769 46.6679C24.769 48.5865 24.4462 50.3944 23.8006 52.0916C23.155 53.7888 22.2238 55.2647 21.0071 56.5191C19.7904 57.7736 18.3129 58.7698 16.5748 59.5077C14.8614 60.2456 12.9246 60.6146 10.7643 60.6146H1.60161ZM6.55541 56.4822H10.6525C12.0431 56.4822 13.2971 56.224 14.4145 55.7074C15.5567 55.1909 16.5127 54.4899 17.2824 53.6044C18.077 52.7189 18.6854 51.6858 19.1075 50.5051C19.5297 49.2998 19.7407 48.0208 19.7407 46.6679C19.7407 45.3643 19.5297 44.1344 19.1075 42.9784C18.6854 41.7977 18.077 40.7769 17.2824 39.916C16.5127 39.0305 15.5567 38.3418 14.4145 37.8498C13.2971 37.3333 12.0431 37.075 10.6525 37.075H6.55541V56.4822Z" fill="black"/>
<path fill-rule="evenodd" clip-rule="evenodd" d="M33.7111 60.3194C34.9527 60.8113 36.3929 61.0573 38.0317 61.0573C39.5712 61.0573 40.85 60.8851 41.8681 60.5408C42.911 60.1964 43.7429 59.8275 44.3636 59.4339C44.9844 59.0157 45.419 58.6345 45.6673 58.2901L46.077 57.7736V55.3385H42.7993L42.5758 55.6705C42.4516 55.8673 42.2158 56.0887 41.8681 56.3346C41.5453 56.5806 41.0735 56.8143 40.4527 57.0357C39.832 57.2324 39.0374 57.3308 38.069 57.3308C36.4053 57.3308 35.1265 56.8635 34.2326 55.9288C33.3386 54.9941 32.8296 53.7519 32.7054 52.2023H46.2632L46.3377 51.5751C46.4122 51.1569 46.4495 50.6404 46.4495 50.0255C46.4495 48.8448 46.2756 47.7379 45.928 46.7048C45.6052 45.6718 45.0837 44.7863 44.3636 44.0483C43.6435 43.3104 42.7248 42.7324 41.6074 42.3142C40.5148 41.8715 39.1988 41.6501 37.6592 41.6501C36.1445 41.6501 34.7913 41.9084 33.5994 42.4249C32.4075 42.9415 31.4142 43.6425 30.6196 44.528C29.825 45.3889 29.2167 46.4097 28.7945 47.5903C28.3724 48.771 28.1614 50.0255 28.1614 51.3537C28.1614 52.7557 28.36 54.0594 28.7573 55.2647C29.1794 56.4453 29.8002 57.4661 30.6196 58.327C31.4639 59.1633 32.4944 59.8274 33.7111 60.3194ZM42.0544 49.1769H32.8544C33.1027 48.0454 33.5869 47.123 34.307 46.4097C35.052 45.6964 36.1694 45.3397 37.6592 45.3397C39.1491 45.3397 40.2541 45.721 40.9742 46.4835C41.6943 47.2214 42.0544 48.1192 42.0544 49.1769Z" fill="black"/>
<path d="M57.7986 61.0573C56.408 61.0573 55.2285 60.9097 54.2601 60.6146C53.2917 60.2948 52.4971 59.9381 51.8764 59.5446C51.2804 59.151 50.8334 58.7698 50.5355 58.4008C50.2375 58.0073 50.0637 57.749 50.014 57.626V55.1909H53.2172C53.2172 55.2401 53.3041 55.4 53.478 55.6705C53.6518 55.9165 53.9249 56.1748 54.2974 56.4453C54.6699 56.7159 55.1416 56.9619 55.7128 57.1832C56.2839 57.4046 56.9791 57.5153 57.7986 57.5153C59.0153 57.5153 59.8596 57.3308 60.3313 56.9619C60.828 56.5929 61.0763 56.101 61.0763 55.486C61.0763 54.7235 60.7286 54.207 60.0334 53.9364C59.3629 53.6413 58.5311 53.3953 57.5378 53.1985L55.3775 52.7926C53.9622 52.5467 52.7703 52.0178 51.8019 51.2061C50.8334 50.3698 50.3492 49.1154 50.3492 47.4428C50.3492 45.8685 50.9576 44.5157 52.1743 43.3842C53.4159 42.2281 55.1665 41.6501 57.4261 41.6501C59.4871 41.6501 61.0514 41.9822 62.1192 42.6463C63.1869 43.3104 63.9194 44.0483 64.3167 44.8601V47.2952H61.1508C61.1508 47.246 61.0763 47.1107 60.9273 46.8893C60.8031 46.6433 60.5921 46.3974 60.2941 46.1514C60.021 45.9054 59.6361 45.6841 59.1394 45.4873C58.6677 45.2659 58.0841 45.1552 57.3889 45.1552C56.3459 45.1552 55.601 45.352 55.1541 45.7455C54.7319 46.1391 54.5209 46.631 54.5209 47.2214C54.5209 47.8117 54.7692 48.2791 55.2658 48.6234C55.7872 48.9432 56.4701 49.1892 57.3144 49.3613L59.4747 49.7672C60.2444 49.9148 60.9769 50.1115 61.6722 50.3575C62.3675 50.5789 62.9759 50.8987 63.4973 51.3168C64.0188 51.7104 64.4285 52.2146 64.7264 52.8295C65.0493 53.4445 65.2107 54.1824 65.2107 55.0433C65.2107 56.7405 64.5775 58.1671 63.3111 59.3232C62.0447 60.4793 60.2072 61.0573 57.7986 61.0573Z" fill="black"/>
<path d="M102.953 60.6146V42.0929H107.087L107.348 44.5649C107.795 43.9008 108.477 43.2489 109.396 42.6094C110.34 41.9699 111.556 41.6501 113.046 41.6501C114.313 41.6501 115.38 41.8592 116.25 42.2773C117.143 42.6709 117.864 43.2243 118.41 43.9377C118.956 44.6264 119.353 45.4381 119.602 46.3728C119.85 47.3075 119.974 48.3037 119.974 49.3613V60.6146H115.43V49.9148C115.43 48.6357 115.145 47.5903 114.573 46.7786C114.002 45.9423 113.046 45.5242 111.705 45.5242C110.911 45.5242 110.24 45.6595 109.694 45.93C109.148 46.176 108.713 46.5081 108.391 46.9262C108.068 47.3444 107.832 47.824 107.683 48.3652C107.534 48.8817 107.459 49.3982 107.459 49.9148V60.6146H102.953Z" fill="black"/>
<path d="M7.85904 92.8931C9.57239 93.6311 11.534 94 13.744 94C15.6063 94 17.1955 93.7786 18.5116 93.3359C19.8276 92.8685 20.8954 92.3397 21.7148 91.7494C22.5591 91.159 23.1798 90.581 23.5771 90.0153C23.9993 89.4495 24.2476 89.0437 24.3221 88.7977V86.1412H20.5229C20.4981 86.2396 20.3615 86.4979 20.1132 86.916C19.8897 87.3096 19.5172 87.7277 18.9958 88.1705C18.4743 88.6132 17.7915 89.0068 16.9472 89.3511C16.103 89.6955 15.0601 89.8677 13.8185 89.8677C12.4528 89.8677 11.2112 89.6094 10.0938 89.0929C9.00127 88.5763 8.08252 87.863 7.33759 86.9529C6.59266 86.0428 6.00913 84.9605 5.587 83.7061C5.1897 82.4516 4.99105 81.0988 4.99105 79.6475C4.99105 78.1717 5.1897 76.8189 5.587 75.589C6.00913 74.3345 6.59266 73.2646 7.33759 72.3791C8.10736 71.4936 9.03852 70.8048 10.1311 70.3129C11.2237 69.7963 12.4528 69.5381 13.8185 69.5381C15.0849 69.5381 16.1278 69.7103 16.9472 70.0546C17.7915 70.3744 18.4619 70.7433 18.9585 71.1615C19.4552 71.5797 19.8028 71.9855 20.0015 72.3791C20.2001 72.7726 20.3118 73.0186 20.3367 73.117H24.1358V70.4605C24.0862 70.2637 23.8751 69.8947 23.5026 69.3536C23.155 68.8125 22.5839 68.259 21.7893 67.6933C20.9947 67.103 19.9394 66.5864 18.6233 66.1437C17.3073 65.6763 15.6808 65.4426 13.744 65.4426C11.683 65.4426 9.79587 65.7993 8.08252 66.5126C6.39401 67.2259 4.9538 68.2098 3.76191 69.4643C2.57002 70.7187 1.63885 72.2192 0.968413 73.9656C0.322804 75.712 0 77.606 0 79.6475C0 81.6645 0.297973 83.5585 0.89392 85.3295C1.5147 87.0759 2.3962 88.5886 3.53843 89.8677C4.70549 91.1467 6.1457 92.1552 7.85904 92.8931Z" fill="black"/>
<path fill-rule="evenodd" clip-rule="evenodd" d="M36.7773 94C35.2626 94 33.8969 93.7417 32.6802 93.2252C31.4883 92.7087 30.4702 92.0199 29.6259 91.159C28.8065 90.2735 28.1733 89.2405 27.7264 88.0598C27.3042 86.8545 27.0932 85.5878 27.0932 84.2595C27.0932 82.9313 27.3042 81.6768 27.7264 80.4961C28.1733 79.3155 28.8065 78.2947 29.6259 77.4338C30.4702 76.5483 31.4883 75.8596 32.6802 75.3676C33.8969 74.8511 35.2626 74.5928 36.7773 74.5928C38.2672 74.5928 39.608 74.8511 40.7999 75.3676C42.0166 75.8596 43.0347 76.5483 43.8541 77.4338C44.6736 78.2947 45.3068 79.3155 45.7537 80.4961C46.2007 81.6768 46.4242 82.9313 46.4242 84.2595C46.4242 85.5878 46.2007 86.8545 45.7537 88.0598C45.3068 89.2405 44.6736 90.2735 43.8541 91.159C43.0347 92.0199 42.0166 92.7087 40.7999 93.2252C39.608 93.7417 38.2672 94 36.7773 94ZM36.7773 90.1628C38.5155 90.1628 39.7943 89.5848 40.6137 88.4287C41.4579 87.2727 41.8801 85.8829 41.8801 84.2595C41.8801 82.6853 41.4579 81.3201 40.6137 80.1641C39.7943 79.008 38.5155 78.43 36.7773 78.43C35.0391 78.43 33.7479 79.008 32.9036 80.1641C32.0594 81.3201 31.6372 82.6853 31.6372 84.2595C31.6372 85.8829 32.0594 87.2727 32.9036 88.4287C33.7479 89.5848 35.0391 90.1628 36.7773 90.1628Z" fill="black"/>
<path d="M50.5076 75.0356V93.5573H55.0145V82.8575C55.0145 82.3409 55.089 81.8244 55.2379 81.3078C55.3869 80.7667 55.6228 80.2871 55.9456 79.8689C56.2684 79.4508 56.703 79.1187 57.2493 78.8727C57.7956 78.6021 58.466 78.4669 59.2606 78.4669C60.6015 78.4669 61.5575 78.885 62.1286 79.7213C62.6997 80.533 62.9853 81.5784 62.9853 82.8575V93.5573H67.5293V82.304C67.5293 81.2464 67.4052 80.2502 67.1569 79.3155C66.9086 78.3808 66.5113 77.5691 65.965 76.8803C65.4187 76.167 64.6986 75.6136 63.8047 75.22C62.9356 74.8019 61.8679 74.5928 60.6015 74.5928C59.1116 74.5928 57.8949 74.9126 56.9513 75.5521C56.0325 76.1916 55.3497 76.8435 54.9027 77.5076L54.642 75.0356H50.5076Z" fill="black"/>
<path fill-rule="evenodd" clip-rule="evenodd" d="M84.07 69.6976C85.4596 70.2707 86.4438 70.3817 88.0827 70.3817C91.1867 70.3817 93.1583 69.1325 94.971 67.214C96.8086 65.2954 97.7273 62.725 97.7273 59.5027V41.9772H93.5556L93.2204 44.7075C92.5499 43.7236 91.6808 42.9488 90.613 42.3831C89.5452 41.7927 88.3037 41.4976 86.8882 41.4976C85.5722 41.4976 84.3802 41.7558 83.3125 42.2724C82.2447 42.7889 81.3383 43.4899 80.5934 44.3754C79.8484 45.2363 79.2773 46.2571 78.88 47.4378C78.4827 48.6185 78.284 49.8729 78.284 51.2012C78.284 52.5048 78.4827 53.747 78.88 54.9276C79.2773 56.0837 79.836 57.1045 80.5561 57.99C81.3011 58.8509 82.2074 59.5396 83.2752 60.0562C84.343 60.5481 85.5349 60.7941 86.851 60.7941C88.2416 60.7941 89.4708 60.5235 90.5385 59.9824C91.6311 59.4166 92.5127 58.6541 93.1831 57.6948V59.5765C93.1831 61.5689 92.2481 63.1554 91.5361 64.3361C90.8241 65.5167 89.4087 66.7659 87.5215 66.7659C86.6463 66.7659 85.2146 66.5867 84.1367 66.0939C83.0588 65.6011 81.5141 65.0107 79.8101 65.0107C78.3291 65.0107 76.895 65.3569 75.703 66.5867C74.5111 67.8166 73.9151 69.5015 73.9151 71.6414V74.9199H70.6373V78.6464H73.9151V93.4416H78.4594V78.6464H84.4563V74.9199H78.4594V71.5677C78.4594 70.5838 78.6456 69.8582 79.0181 69.3908C79.3906 68.8989 79.9617 68.6893 80.7315 68.6893C81.5013 68.6893 82.6804 69.1244 84.07 69.6976ZM88.0057 56.9569C89.5701 56.9569 90.8241 56.3912 91.7677 55.2597C92.7113 54.1282 93.1831 52.7631 93.1831 51.1642C93.1831 49.59 92.7113 48.2372 91.7677 47.1057C90.8241 45.9742 89.5701 45.4085 88.0057 45.4085C86.2923 45.4085 84.9886 45.9742 84.0947 47.1057C83.2255 48.2372 82.791 49.59 82.791 51.1642C82.791 52.7631 83.2255 54.1282 84.0947 55.2597C84.9886 56.3912 86.2923 56.9569 88.0057 56.9569Z" fill="black"/>
<path d="M22.169 5.31297V0.774788H26.9739V5.31297H22.169ZM22.318 27.6718V9.15014H26.8249V27.6718H22.318Z" fill="black"/>
<path d="M69.7298 38.2557V33.7175H74.5346V38.2557H69.7298ZM69.8787 60.6146V42.0929H74.3856V60.6146H69.8787Z" fill="black"/>
</svg>
