<svg width="83" height="83" viewBox="0 0 83 83" fill="none" xmlns="http://www.w3.org/2000/svg">
<rect width="83" height="83" rx="41.5" fill="#FEE600"/>
<path fill-rule="evenodd" clip-rule="evenodd" d="M41.1525 47.1386L26.4107 62.221L20.5617 56.2435L35.3049 41.1558L32.2295 38.0066V31.7889L30.0935 29.601V35.0235L28.2344 36.9266L20.7602 29.2763L18.9114 31.1673C18.9247 29.7407 19.2029 25.612 22.6252 22.1697C26.3184 18.5341 30.3068 20.1722 31.6708 21.5693L39.1413 29.2159L37.2356 31.1636L41.1525 35.173L45.0686 31.1636L43.1637 29.2159L50.6327 21.5693C51.9966 20.1722 55.985 18.5341 59.6782 22.1697C63.1013 25.612 63.3795 29.7407 63.3936 31.1673L61.5447 29.2763L54.0698 36.9266L52.2114 35.0235V29.601L50.074 31.7889V38.0066L46.9986 41.1558L61.7425 56.2435L55.8942 62.221L41.1525 47.1386Z" fill="black"/>
</svg>
