<svg width="448" height="48" fill="none" xmlns="http://www.w3.org/2000/svg"><path d="M72 37.824h5.187V25.26h10.959v-4.227H77.187v-8.18h12.129V8.47H72v29.354zm21.692 0h4.719V18.176h-4.72v19.648zm-.156-23.718h5.03V9.292h-5.03v4.814zm10.325 23.718h4.719v-11.35c0-2.231 1.092-4.658 4.446-4.658 2.808 0 3.9 1.918 3.9 4.658v11.35h4.758V25.887c0-4.462-1.95-8.18-7.254-8.18-3.159 0-5.031 1.682-5.967 3.091l-.273-2.622h-4.329v19.648zm31.352.47c3.432 0 5.07-1.644 5.811-3.092v-2.623h-3.276c0 .196-.234 1.722-2.34 1.722-2.028 0-2.769-1.291-2.769-3.561v-8.61h7.722v-3.954h-7.722v-4.931h-4.329l-.273 4.931h-3.198v3.953h3.081v8.924c0 4.618 2.535 7.24 7.293 7.24zm18.26 0c6.474 0 8.424-3.484 8.424-3.484v-2.583h-3.432s-.897 2.114-4.953 2.114c-3.51 0-5.343-2.114-5.616-5.44h14.196s.195-1.018.195-2.31c0-5.049-2.769-8.885-9.204-8.885-6.396 0-9.945 4.619-9.945 10.294 0 5.95 3.471 10.294 10.335 10.294zm-5.421-12.603c.507-2.388 1.911-4.07 5.031-4.07 3.12 0 4.602 1.8 4.602 4.07h-9.633zm27.466 12.603c6.318 0 7.761-4.032 7.761-4.032V31.68h-3.315s-.585 2.544-4.446 2.544c-3.627 0-5.304-2.779-5.304-6.223 0-3.405 1.677-6.262 5.304-6.262 3.705 0 4.407 2.544 4.407 2.544h3.315V21.7s-1.365-4.032-7.722-4.032c-6.318 0-10.062 4.658-10.062 10.333 0 5.636 3.315 10.294 10.062 10.294zm12.055-.47h4.719v-11.35c0-2.231 1.092-4.658 4.446-4.658 2.808 0 3.9 1.918 3.9 4.658v11.35h4.758V25.887c0-4.462-1.95-8.18-7.254-8.18-3.003 0-4.875 1.565-5.85 2.896V8.47h-4.719v29.354zm33.419 0h9.594c9.048 0 14.664-6.654 14.664-14.795 0-8.023-5.616-14.56-14.664-14.56h-9.594v29.355zm5.187-4.384V12.853h4.29c5.889 0 9.516 4.58 9.516 10.176 0 5.754-3.627 10.411-9.516 10.411h-4.29zm32.716 4.854c6.474 0 8.424-3.484 8.424-3.484v-2.583h-3.432s-.897 2.114-4.953 2.114c-3.51 0-5.343-2.114-5.616-5.44h14.196s.195-1.018.195-2.31c0-5.049-2.769-8.885-9.204-8.885-6.396 0-9.945 4.619-9.945 10.294 0 5.95 3.471 10.294 10.335 10.294zm-5.421-12.603c.507-2.388 1.911-4.07 5.031-4.07 3.12 0 4.602 1.8 4.602 4.07h-9.633zm25.633 12.603c5.07 0 7.761-2.74 7.761-6.38 0-3.718-2.808-5.01-6.006-5.597l-2.262-.43c-1.755-.353-2.925-1.018-2.925-2.27 0-1.253.819-2.192 3.003-2.192 2.964 0 3.9 2.074 3.939 2.27h3.315V21.11c-.819-1.722-2.886-3.405-7.215-3.405-4.758 0-7.41 2.78-7.41 6.145 0 3.562 2.301 5.167 5.265 5.675l2.262.43c2.106.431 3.705.823 3.705 2.428 0 1.291-.858 2.152-3.432 2.152-3.432 0-4.758-2.23-4.797-2.466h-3.354v2.584c.234.548 2.34 3.64 8.151 3.64zm11.984-.47h4.719V18.176h-4.719v19.648zm-.156-23.718h5.031V9.292h-5.031v4.814zM309.879 48c6.513 0 10.608-4.344 10.608-11.233v-18.59h-4.368l-.351 2.895c-1.404-2.074-3.666-3.405-6.63-3.405-5.577 0-9.009 4.619-9.009 10.294 0 5.558 3.393 10.176 8.97 10.176 2.925 0 5.226-1.252 6.63-3.288v1.996c0 4.227-1.95 6.928-5.928 6.928-4.173 0-5.226-3.014-5.226-3.014h-3.471v2.584S302.976 48 309.879 48zm.429-13.934c-3.627 0-5.46-2.74-5.46-6.144 0-3.366 1.833-6.106 5.46-6.106 3.315 0 5.421 2.74 5.421 6.106 0 3.405-2.106 6.144-5.421 6.144zm15.594 3.758h4.719v-11.35c0-2.231 1.092-4.658 4.446-4.658 2.808 0 3.9 1.918 3.9 4.658v11.35h4.758V25.887c0-4.462-1.95-8.18-7.254-8.18-3.159 0-5.031 1.682-5.967 3.091l-.273-2.622h-4.329v19.648zm46.132.47c7.839 0 10.803-4.501 11.076-5.519v-2.818h-3.978c-.117.47-1.794 3.953-7.02 3.953-5.772 0-9.243-4.658-9.243-10.841 0-6.302 3.51-10.725 9.243-10.725 5.343 0 6.747 3.327 6.825 3.797h3.978v-2.818C382.72 12.5 380.185 8 372.034 8c-8.697 0-14.391 6.34-14.391 15.069 0 8.61 5.109 15.225 14.391 15.225zm24.118 0c6.318 0 10.101-4.658 10.101-10.333s-3.783-10.255-10.101-10.255c-6.396 0-10.14 4.58-10.14 10.255 0 5.675 3.744 10.333 10.14 10.333zm0-4.07c-3.666 0-5.382-2.819-5.382-6.263 0-3.366 1.716-6.184 5.382-6.184 3.666 0 5.343 2.818 5.343 6.184 0 3.444-1.677 6.262-5.343 6.262zm14.377 3.6h4.719v-11.35c0-2.231 1.092-4.658 4.446-4.658 2.808 0 3.9 1.918 3.9 4.658v11.35h4.758V25.887c0-4.462-1.95-8.18-7.254-8.18-3.159 0-5.031 1.682-5.967 3.091l-.273-2.622h-4.329v19.648zm24.566 0h4.758V22.129h6.279v-3.953h-6.279V15.32c0-2.074.78-3.092 2.379-3.092 1.638 0 1.989 1.096 1.989 1.252h3.354v-2.622c-.624-1.526-2.34-2.779-5.382-2.779-4.485 0-7.098 2.74-7.098 7.32v2.778h-3.432v3.953h3.432v15.695z" fill="#000"/><rect width="48" height="48" rx="16" fill="#FEE600"/><path fill-rule="evenodd" clip-rule="evenodd" d="M24 27.428l-8.419 8.605-3.34-3.41 8.42-8.608-1.757-1.797V18.67l-1.22-1.248v3.094l-1.061 1.086-4.269-4.365-1.055 1.079c.007-.814.166-3.17 2.12-5.134 2.11-2.074 4.387-1.14 5.166-.343l4.267 4.363-1.089 1.111L24 20.602l2.236-2.287-1.087-1.112 4.265-4.363c.779-.797 3.057-1.731 5.166.343 1.955 1.964 2.114 4.32 2.122 5.134l-1.056-1.08-4.269 4.366-1.061-1.086v-3.094l-1.221 1.248v3.548l-1.756 1.797 8.42 8.608-3.34 3.41L24 27.428z" fill="#000"/></svg>