<svg width="33" height="32" viewBox="0 0 33 32" fill="none" xmlns="http://www.w3.org/2000/svg">
<path d="M30.1664 18.6877C30.1664 13.1041 26.6988 11.9549 24.1872 11.9549C23.3661 11.904 22.5436 12.0296 21.7752 12.3234C21.0067 12.6172 20.3101 13.0723 19.7324 13.6581C19.1547 14.2438 18.7093 14.9466 18.4261 15.719C18.143 16.4915 18.0287 17.3156 18.091 18.136C18.091 23.1685 20.8408 24.8226 24.427 24.8226C25.6633 24.8967 26.8884 24.5513 27.904 23.8424C28.9196 23.1335 29.6662 22.1025 30.0229 20.9165H26.5789C26.4067 21.3372 26.1058 21.6927 25.7192 21.9321C25.3327 22.1714 24.8804 22.2824 24.4269 22.2491C24.031 22.2864 23.6317 22.2371 23.2568 22.1046C22.8818 21.972 22.5402 21.7595 22.2557 21.4816C21.9712 21.2037 21.7507 20.8672 21.6093 20.4955C21.468 20.1238 21.4093 19.7257 21.4373 19.3291H30.1664V18.6877ZM21.5335 17.3333C21.7245 15.7247 22.5622 14.5974 24.1399 14.5974C24.8427 14.6248 25.5069 14.9266 25.9897 15.4381C26.4726 15.9496 26.7356 16.63 26.7225 17.3333H21.5335Z" fill="#2B2D33"/>
<path d="M27.4999 8.78076H20.8333V10.6666H27.4999V8.78076Z" fill="#2B2D33"/>
<path d="M14.5749 15.6088C15.2306 15.3383 15.7814 14.8635 16.1458 14.255C16.5101 13.6465 16.6685 12.9367 16.5973 12.231C16.5973 10.5307 15.5634 8.00342 11.5186 8.00342H3.5V24.5013H10.4846C13.8624 24.5013 14.7585 23.9268 15.7013 23.008C16.1516 22.5631 16.5093 22.0336 16.7539 21.4498C16.9985 20.866 17.1251 20.2396 17.1264 19.6066C17.2089 18.751 17.0024 17.8924 16.54 17.1678C16.0775 16.4432 15.3857 15.8944 14.5749 15.6088ZM6.83333 10.6668H11.5C12.0304 10.6668 12.5391 10.8775 12.9142 11.2526C13.2893 11.6277 13.5 12.1364 13.5 12.6668C13.5 13.1973 13.2893 13.706 12.9142 14.081C12.5391 14.4561 12.0304 14.6668 11.5 14.6668H6.83333V10.6668ZM11.8333 21.3335H6.83333V17.3335H11.8333C12.3638 17.3335 12.8725 17.5442 13.2475 17.9193C13.6226 18.2944 13.8333 18.8031 13.8333 19.3335C13.8333 19.8639 13.6226 20.3726 13.2475 20.7477C12.8725 21.1228 12.3638 21.3335 11.8333 21.3335Z" fill="#2B2D33"/>
</svg>
