<svg width="33" height="32" viewBox="0 0 33 32" fill="none" xmlns="http://www.w3.org/2000/svg">
<path d="M16.8333 4C14.4599 4 12.1398 4.70379 10.1664 6.02237C8.19302 7.34094 6.65495 9.21509 5.7467 11.4078C4.83845 13.6005 4.60081 16.0133 5.06383 18.3411C5.52686 20.6689 6.66975 22.8071 8.34798 24.4853C10.0262 26.1635 12.1644 27.3064 14.4922 27.7694C16.8199 28.2324 19.2327 27.9948 21.4255 27.0866C23.6182 26.1783 25.4923 24.6402 26.8109 22.6668C28.1295 20.6935 28.8333 18.3734 28.8333 16C28.8333 12.8174 27.569 9.76515 25.3185 7.51472C23.0681 5.26428 20.0159 4 16.8333 4ZM26.8249 15.8345C25.3608 15.4628 23.8572 15.269 22.3467 15.2571C21.5826 15.2558 20.8195 15.3117 20.0637 15.4245C20.0041 15.4335 19.9479 15.452 19.8885 15.4618C19.637 14.8586 19.3715 14.2631 19.0918 13.6753C21.2028 12.786 23.0846 11.4294 24.5955 9.70772C26.0058 11.4415 26.7911 13.5998 26.8249 15.8345ZM23.1382 8.24731C21.7927 9.82863 20.0937 11.0708 18.1787 11.8731C17.1125 9.9106 15.8828 8.04144 14.5026 6.28548C15.9955 5.91874 17.5533 5.90511 19.0523 6.24566C20.5513 6.58621 21.9503 7.27157 23.1382 8.24731ZM12.4931 7.00488C13.9128 8.74521 15.1748 10.6085 16.2641 12.5726C13.4124 13.3682 10.46 13.7442 7.49992 13.6888C7.36947 13.6888 7.24544 13.6782 7.11743 13.6742C7.46512 12.2345 8.12753 10.8896 9.05702 9.73646C9.98652 8.58328 11.16 7.65039 12.4931 7.00488ZM6.83326 16C6.83326 15.8862 6.84652 15.7759 6.85035 15.663C7.06674 15.6719 7.27874 15.6888 7.49992 15.6888C10.7817 15.7492 14.0535 15.307 17.2015 14.3776C17.4484 14.8888 17.6816 15.4077 17.9059 15.9314C14.3584 17.0797 11.3185 19.422 9.30371 22.5596C7.71163 20.7452 6.8336 18.4139 6.83326 16ZM10.7784 23.94C12.5748 21.0089 15.3689 18.8248 18.6471 17.7893C19.5293 20.2168 20.1581 22.729 20.5233 25.2859C18.9223 25.9289 17.1812 26.1429 15.4721 25.9069C13.7631 25.6708 12.1452 24.9929 10.7784 23.94ZM22.3997 24.3025C22.0188 21.9468 21.426 19.6303 20.6286 17.3812C21.2164 17.3051 21.8086 17.2674 22.4014 17.2682C23.8381 17.2807 25.2673 17.4771 26.6542 17.8526C26.4074 19.1558 25.9043 20.3971 25.1739 21.5043C24.4435 22.6115 23.5006 23.5626 22.3997 24.3025V24.3025Z" fill="black"/>
</svg>
