<svg width="32" height="32" viewBox="0 0 32 32" fill="none" xmlns="http://www.w3.org/2000/svg">
<path fill-rule="evenodd" clip-rule="evenodd" d="M16.3087 21.1907C15.4227 22.0537 14.5444 22.9024 13.6743 23.7577C13.3701 24.0573 13.028 24.2229 12.5914 24.1999C12.2934 24.1841 12.1267 24.0532 12.0352 23.7705C11.3685 21.7014 10.6921 19.6375 10.029 17.5664C9.96463 17.3655 9.86953 17.2679 9.66605 17.205C8.09549 16.7254 6.528 16.2346 4.96306 15.7372C4.72226 15.6605 4.47942 15.5603 4.27134 15.4187C3.94976 15.2009 3.90272 14.8456 4.19107 14.5899C4.45743 14.3542 4.77543 14.1487 5.1057 14.0178C7.02544 13.2571 8.95542 12.5209 10.8823 11.7781C15.7724 9.89001 20.6625 8.00349 25.5532 6.11544C26.4831 5.75603 27.1979 6.26217 27.1012 7.2678C27.0394 7.91096 26.8727 8.54388 26.7383 9.17886C25.6764 14.1927 24.6135 19.207 23.546 24.2198C23.2924 25.41 22.4565 25.7209 21.477 24.9985C19.8364 23.7894 18.1973 22.5762 16.5577 21.365C16.4795 21.3083 16.3982 21.2536 16.3087 21.1907ZM12.6262 22.7132C12.6446 22.7081 12.663 22.703 12.6814 22.6984C12.6916 22.6513 12.7065 22.6053 12.7106 22.5588C12.8159 21.4223 12.9273 20.2863 13.0188 19.1477C13.0393 18.8941 13.1262 18.7142 13.3169 18.5434C14.8292 17.1912 16.3323 15.8302 17.8384 14.4723C19.5056 12.9688 21.1733 11.4667 22.8343 9.95698C22.9371 9.86393 22.98 9.70544 23.0506 9.57661C22.8942 9.55974 22.7265 9.49685 22.5843 9.53366C22.3906 9.58377 22.207 9.69624 22.0342 9.80514C18.3548 12.1226 14.6784 14.4442 10.9963 16.7571C10.7883 16.888 10.7494 16.9989 10.8286 17.2275C11.1001 18.0071 11.347 18.7939 11.6032 19.5792C11.9442 20.6242 12.2852 21.6687 12.6262 22.7132Z" fill="#2B2D33"/>
</svg>
