<svg width="33" height="32" viewBox="0 0 33 32" fill="none" xmlns="http://www.w3.org/2000/svg">
<path d="M29.9097 10.4065C29.8314 9.53275 29.4478 8.71451 28.8263 8.09542C28.2048 7.47633 27.385 7.09596 26.511 7.02109C24.4208 6.84765 21.3228 6.6665 17.5002 6.6665C12.8968 6.6665 9.42196 6.85457 7.17545 7.03093C6.2973 7.10148 5.4724 7.48038 4.84672 8.10059C4.22105 8.7208 3.83492 9.54234 3.75667 10.4198C3.61915 11.8668 3.5 13.7778 3.5 16.0562C3.5 18.278 3.61816 20.1552 3.75504 21.5842C3.83407 22.4609 4.22053 23.2814 4.84608 23.9008C5.47164 24.5201 6.29602 24.8983 7.17349 24.9686C9.41992 25.1449 12.8954 25.3332 17.5002 25.3332C21.3227 25.3332 24.4208 25.152 26.511 24.9785C27.385 24.9037 28.2048 24.5233 28.8263 23.9042C29.4479 23.2852 29.8315 22.4669 29.9097 21.5932C30.0474 20.1538 30.1667 18.2557 30.1667 15.9998C30.1667 13.744 30.0474 11.8459 29.9097 10.4065ZM13.8679 19.9182V12.0815L21.5987 15.9998L13.8679 19.9182Z" fill="#2B2D33"/>
</svg>
