<svg width="64" height="64" viewBox="0 0 64 64" fill="none" xmlns="http://www.w3.org/2000/svg">
<rect width="64" height="64" rx="16" fill="#FEE600"/>
<path fill-rule="evenodd" clip-rule="evenodd" d="M32.0001 36.8159L20.775 48.3003L16.3213 43.7487L27.5475 32.2603L25.2057 29.8623V25.1279L23.5793 23.462V27.5909L22.1637 29.04L16.4725 23.2147L15.0647 24.6546C15.0748 23.5684 15.2867 20.4245 17.8926 17.8034C20.7048 15.0351 23.7417 16.2824 24.7803 17.3463L30.4687 23.1687L29.0176 24.6518L32.0001 27.7047L34.982 24.6518L33.5315 23.1687L39.2188 17.3463C40.2573 16.2824 43.2943 15.0351 46.1064 17.8034C48.7129 20.4245 48.9248 23.5684 48.9355 24.6546L47.5277 23.2147L41.8359 29.04L40.4208 27.5909V23.462L38.7933 25.1279V29.8623L36.4516 32.2603L47.6783 43.7487L43.2251 48.3003L32.0001 36.8159Z" fill="black"/>
</svg>
