<svg width="186" height="93" viewBox="0 0 186 93" fill="none" xmlns="http://www.w3.org/2000/svg">
<path fill-rule="evenodd" clip-rule="evenodd" d="M93 81C83.1379 81 73.9035 85.3488 64.8426 89.2423C59.2148 91.6607 53.0138 93 46.5 93C20.8188 93 0 72.1812 0 46.5C0 20.8188 20.8188 0 46.5 0C53.0138 0 59.2148 1.33935 64.8426 3.75768C73.9035 7.65125 83.1379 12 93 12C102.862 12 112.096 7.65124 121.157 3.75767C126.785 1.33935 132.986 0 139.5 0C165.181 0 186 20.8188 186 46.5C186 72.1812 165.181 93 139.5 93C132.986 93 126.785 91.6607 121.157 89.2423C112.096 85.3488 102.862 81 93 81Z" fill="#F4F5F5"/>
</svg>
