<svg width="372" height="93" viewBox="0 0 372 93" fill="none" xmlns="http://www.w3.org/2000/svg">
<path fill-rule="evenodd" clip-rule="evenodd" d="M63.9357 89.6206C73.339 85.8148 82.8558 81.375 93 81.375C103.144 81.375 112.661 85.8148 122.064 89.6206C127.449 91.7999 133.334 93 139.5 93C145.666 93 151.551 91.7999 156.936 89.6207C166.339 85.8148 175.856 81.375 186 81.375C196.144 81.375 205.661 85.8148 215.064 89.6207C220.449 91.7999 226.334 93 232.5 93C238.666 93 244.551 91.7999 249.936 89.6206C259.339 85.8148 268.856 81.375 279 81.375C289.144 81.375 298.661 85.8148 308.064 89.6206C313.449 91.7999 319.334 93 325.5 93C351.181 93 372 72.1812 372 46.5C372 20.8188 351.181 0 325.5 0C319.334 0 313.449 1.20006 308.064 3.37936C298.661 7.18524 289.144 11.625 279 11.625C268.856 11.625 259.339 7.18524 249.936 3.37936C244.551 1.20006 238.666 0 232.5 0C226.334 0 220.449 1.20006 215.064 3.37935C205.661 7.18523 196.144 11.625 186 11.625C175.856 11.625 166.339 7.18523 156.936 3.37935C151.551 1.20006 145.666 0 139.5 0C133.334 0 127.449 1.20006 122.064 3.37936C112.661 7.18524 103.144 11.625 93 11.625C82.8558 11.625 73.339 7.18524 63.9357 3.37935C58.5513 1.20006 52.6658 0 46.5 0C20.8188 0 0 20.8188 0 46.5C0 72.1812 20.8188 93 46.5 93C52.6658 93 58.5513 91.7999 63.9357 89.6206Z" fill="#F4F5F5"/>
</svg>
