<svg width="279" height="93" viewBox="0 0 279 93" fill="none" xmlns="http://www.w3.org/2000/svg">
<path fill-rule="evenodd" clip-rule="evenodd" d="M121.157 89.2423C112.096 85.3488 102.862 81 93 81C83.1379 81 73.9035 85.3488 64.8426 89.2423C59.2148 91.6607 53.0138 93 46.5 93C20.8188 93 0 72.1812 0 46.5C0 20.8188 20.8188 0 46.5 0C53.0138 0 59.2148 1.33935 64.8426 3.75767C73.9035 7.65125 83.1379 12 93 12C102.862 12 112.096 7.65124 121.157 3.75767C126.785 1.33935 132.986 0 139.5 0C146.014 0 152.215 1.33935 157.843 3.75767C166.904 7.65125 176.138 12 186 12C195.862 12 205.096 7.65125 214.157 3.75767C219.785 1.33935 225.986 0 232.5 0C258.181 0 279 20.8188 279 46.5C279 72.1812 258.181 93 232.5 93C225.986 93 219.785 91.6607 214.157 89.2423C205.096 85.3488 195.862 81 186 81C176.138 81 166.904 85.3488 157.843 89.2423C152.215 91.6607 146.014 93 139.5 93C132.986 93 126.785 91.6607 121.157 89.2423Z" fill="#F4F5F5"/>
</svg>
