<svg width="33" height="32" viewBox="0 0 33 32" fill="none" xmlns="http://www.w3.org/2000/svg">
<path d="M21.4999 4H12.1666C10.2217 4 8.3564 4.77262 6.98114 6.14788C5.60587 7.52315 4.83325 9.38841 4.83325 11.3333V20.6667C4.83325 22.6116 5.60587 24.4769 6.98114 25.8521C8.3564 27.2274 10.2217 28 12.1666 28H21.4999C23.4448 28 25.3101 27.2274 26.6854 25.8521C28.0606 24.4769 28.8333 22.6116 28.8333 20.6667V11.3333C28.8333 9.38841 28.0606 7.52315 26.6854 6.14788C25.3101 4.77262 23.4448 4 21.4999 4ZM26.8333 20.6667C26.8316 22.0807 26.2692 23.4363 25.2694 24.4361C24.2695 25.436 22.9139 25.9984 21.4999 26H12.1666C10.7526 25.9984 9.39697 25.436 8.39712 24.4361C7.39727 23.4363 6.83485 22.0807 6.83325 20.6667V11.3333C6.83484 9.91933 7.39725 8.5637 8.3971 7.56385C9.39695 6.564 10.7526 6.00159 12.1666 6H21.4999C22.9139 6.00159 24.2696 6.564 25.2694 7.56385C26.2693 8.5637 26.8317 9.91933 26.8333 11.3333V20.6667Z" fill="#2B2D33"/>
<path d="M16.8333 10C15.6466 10 14.4865 10.3519 13.4998 11.0112C12.5131 11.6705 11.7441 12.6075 11.29 13.7039C10.8359 14.8003 10.717 16.0067 10.9485 17.1705C11.1801 18.3344 11.7515 19.4035 12.5906 20.2426C13.4297 21.0818 14.4988 21.6532 15.6627 21.8847C16.8266 22.1162 18.033 21.9974 19.1294 21.5433C20.2257 21.0892 21.1628 20.3201 21.8221 19.3334C22.4814 18.3467 22.8333 17.1867 22.8333 16C22.8333 14.4087 22.2011 12.8826 21.0759 11.7574C19.9507 10.6321 18.4246 10 16.8333 10ZM16.8333 20C16.0421 20 15.2688 19.7654 14.611 19.3259C13.9532 18.8864 13.4405 18.2616 13.1377 17.5307C12.835 16.7998 12.7558 15.9956 12.9101 15.2196C13.0645 14.4437 13.4454 13.731 14.0048 13.1716C14.5642 12.6122 15.277 12.2312 16.0529 12.0769C16.8288 11.9225 17.6331 12.0017 18.364 12.3045C19.0949 12.6072 19.7196 13.1199 20.1591 13.7777C20.5987 14.4355 20.8333 15.2089 20.8333 16C20.8321 17.0605 20.4102 18.0772 19.6604 18.8271C18.9105 19.577 17.8938 19.9988 16.8333 20Z" fill="#2B2D33"/>
<path d="M23.0999 11.0666C23.8363 11.0666 24.4333 10.4696 24.4333 9.73324C24.4333 8.99686 23.8363 8.3999 23.0999 8.3999C22.3636 8.3999 21.7666 8.99686 21.7666 9.73324C21.7666 10.4696 22.3636 11.0666 23.0999 11.0666Z" fill="#2B2D33"/>
</svg>
